<?xml version="1.0" encoding="UTF-8"?>
<svg width="33px" height="33px" viewBox="0 0 33 33" version="1.1" xmlns="http://www.w3.org/2000/svg" xmlns:xlink="http://www.w3.org/1999/xlink">
    <title>Facebook Icon Copy</title>
    <defs>
        <filter id="filter-1">
            <feColorMatrix in="SourceGraphic" type="matrix" values="0 0 0 0 1.000000 0 0 0 0 1.000000 0 0 0 0 1.000000 0 0 0 1.000000 0"></feColorMatrix>
        </filter>
    </defs>
    <g id="Design-Update" stroke="none" stroke-width="1" fill="none" fill-rule="evenodd">
        <g id="Desktop-HD" transform="translate(-869.000000, -6403.000000)">
            <g id="Facebook-Icon-Copy" transform="translate(869.000000, 6403.000000)" filter="url(#filter-1)">
                <g>
                    <rect id="Rectangle" x="0" y="0" width="33" height="33"></rect>
                    <path d="M30,16.5338346 C30,9.06315789 23.952,3 16.5,3 C9.048,3 3,9.06315789 3,16.5338346 C3,23.0842105 7.644,28.5383459 13.8,29.7969925 L13.8,20.593985 L11.1,20.593985 L11.1,16.5338346 L13.8,16.5338346 L13.8,13.1503759 C13.8,10.5383459 15.9195,8.41353383 18.525,8.41353383 L21.9,8.41353383 L21.9,12.4736842 L19.2,12.4736842 C18.4575,12.4736842 17.85,13.0827068 17.85,13.8270677 L17.85,16.5338346 L21.9,16.5338346 L21.9,20.593985 L17.85,20.593985 L17.85,30 C24.6675,29.3233083 30,23.5578947 30,16.5338346 Z" id="Path" fill="#000000" fill-rule="nonzero"></path>
                </g>
            </g>
        </g>
    </g>
</svg>