<svg xmlns:dc="http://purl.org/dc/elements/1.1/" xmlns:cc="http://creativecommons.org/ns#" xmlns:rdf="http://www.w3.org/1999/02/22-rdf-syntax-ns#" xmlns:svg="http://www.w3.org/2000/svg" xmlns="http://www.w3.org/2000/svg" xmlns:sodipodi="http://sodipodi.sourceforge.net/DTD/sodipodi-0.dtd" xmlns:inkscape="http://www.inkscape.org/namespaces/inkscape" version="1.1" x="0px" y="0px" viewBox="0 0 100 125"><g transform="translate(0,-952.36218)"><path style="font-size:medium;font-style:normal;font-variant:normal;font-weight:normal;font-stretch:normal;text-indent:0;text-align:start;text-decoration:none;line-height:normal;letter-spacing:normal;word-spacing:normal;text-transform:none;direction:ltr;block-progression:tb;writing-mode:lr-tb;text-anchor:start;baseline-shift:baseline;opacity:1;color:#000000;fill:#000000;fill-opacity:1;stroke:none;stroke-width:3.99999951999999980;marker:none;visibility:visible;display:inline;overflow:visible;enable-background:accumulate;font-family:Sans;-inkscape-font-specification:Sans" d="M 50 6 C 41.023413 6 33.589625 12.29187 31.625 20.6875 C 24.372694 22.62715 19 29.15468 19 37 C 19 44.62489 24.054907 51.0482 31 53.1875 L 31 56.5 C 31 58.638927 32.256841 60.499116 34.0625 61.40625 L 48.1875 92.8125 A 2.0001998 2.0001998 0 0 0 51.8125 92.8125 L 69.75 52.96875 C 76.28846 50.597929 81 44.340981 81 37 C 81 29.15468 75.627306 22.62716 68.375 20.6875 C 66.410375 12.29187 58.976587 6 50 6 z M 50 10 C 57.490543 10 63.633626 15.44549 64.78125 22.59375 A 2.0001998 2.0001998 0 0 0 66.375 24.25 C 72.417836 25.36964 77 30.61338 77 37 C 77 44.20339 71.203391 50 64 50 C 58.424747 50 53.734801 46.50022 51.875 41.59375 A 2.0001998 2.0001998 0 0 0 48.125 41.59375 C 46.668269 45.43687 43.46306 48.3935 39.46875 49.5 A 2.0001998 2.0001998 0 0 0 38 51.4375 L 38 56.5 C 38 57.3656 37.365595 58 36.5 58 C 35.634405 58 35 57.3656 35 56.5 L 35 51.6875 A 2.0001998 2.0001998 0 0 0 33.40625 49.71875 C 27.472142 48.51705 23 43.31332 23 37 C 23 30.61337 27.582165 25.36964 33.625 24.25 A 2.0001998 2.0001998 0 0 0 35.21875 22.59375 C 36.366374 15.44549 42.509457 10 50 10 z M 65.78125 27.96875 A 2.0001998 2.0001998 0 0 0 64.875 31.65625 C 67.270878 33.26358 68.833848 34.92665 69 39.0625 A 2.0015253 2.0015253 0 1 0 73 38.90625 C 72.78812 33.63214 70.125096 30.32519 67.125 28.3125 A 2.0001998 2.0001998 0 0 0 65.78125 27.96875 z M 50.0625 46.46875 C 53.11652 50.97102 58.161839 54 64 54 C 64.319477 54 64.622285 53.955035 64.9375 53.9375 L 61.125 62.40625 L 42 53.9375 L 42 52.78125 C 45.297328 51.52365 48.122189 49.35402 50.0625 46.46875 z M 41.71875 58.1875 L 59.5 66.03125 L 56.34375 73.0625 L 40.46875 65.90625 L 38.53125 61.59375 C 40.031255 60.98555 41.21044 59.733573 41.71875 58.1875 z M 42.9375 71.40625 L 54.6875 76.6875 L 50 87.125 L 42.9375 71.40625 z " transform="translate(0,952.36218)"/></g><text x="0" y="115" fill="#000000" font-size="5px" font-weight="bold" font-family="'Helvetica Neue', Helvetica, Arial-Unicode, Arial, Sans-serif">Created by artworkbean</text><text x="0" y="120" fill="#000000" font-size="5px" font-weight="bold" font-family="'Helvetica Neue', Helvetica, Arial-Unicode, Arial, Sans-serif">from the Noun Project</text></svg>