<?xml version="1.0" encoding="UTF-8"?>
<svg width="28px" height="28px" viewBox="0 0 28 28" version="1.1" xmlns="http://www.w3.org/2000/svg" xmlns:xlink="http://www.w3.org/1999/xlink">
    <title>Instagram Icon  Copy</title>
    <defs>
        <filter id="filter-1">
            <feColorMatrix in="SourceGraphic" type="matrix" values="0 0 0 0 1.000000 0 0 0 0 1.000000 0 0 0 0 1.000000 0 0 0 1.000000 0"></feColorMatrix>
        </filter>
    </defs>
    <g id="Design-Update" stroke="none" stroke-width="1" fill="none" fill-rule="evenodd">
        <g id="Desktop-HD" transform="translate(-973.000000, -6405.000000)">
            <g id="Instagram-Icon--Copy" transform="translate(869.000000, 6403.000000)" filter="url(#filter-1)">
                <g transform="translate(104.046761, 2.832531)">
                    <path d="M13.5,15.46875 C14.56875,15.46875 15.46875,14.56875 15.46875,13.5 C15.46875,12.43125 14.56875,11.53125 13.5,11.53125 C12.43125,11.53125 11.53125,12.43125 11.53125,13.5 C11.53125,14.56875 12.43125,15.46875 13.5,15.46875 Z M17.775,9.675 C18.39375,9.675 18.84375,9.16875 18.84375,8.60625 C18.84375,7.9875 18.3375,7.5375 17.775,7.5375 C17.15625,7.5375 16.70625,8.04375 16.70625,8.60625 C16.70625,9.225 17.15625,9.675 17.775,9.675 Z M17.4375,13.5 C17.4375,15.69375 15.6375,17.4375 13.5,17.4375 C11.3625,17.4375 9.5625,15.6375 9.5625,13.5 C9.5625,13.05 9.61875,12.6 9.7875,12.20625 L7.875,12.20625 L7.875,17.55 C7.875,18.45 8.60625,19.2375 9.5625,19.2375 L17.2125,19.2375 C18.1125,19.2375 18.9,18.50625 18.9,17.55 L18.9,10.51875 L16.0875,10.51875 C16.93125,11.25 17.4375,12.31875 17.4375,13.5 Z M13.5,2.77555756e-17 C6.01875,2.77555756e-17 1.38777878e-17,6.01875 1.38777878e-17,13.5 C1.38777878e-17,20.98125 6.01875,27 13.5,27 C20.98125,27 27,20.98125 27,13.5 C27,6.01875 20.98125,2.77555756e-17 13.5,2.77555756e-17 Z M20.7,18.95625 C20.7,20.19375 19.6875,21.20625 18.45,21.20625 L8.26875,21.20625 C7.03125,21.20625 6.01875,20.19375 6.01875,18.95625 L6.01875,8.775 C6.01875,7.5375 7.03125,6.525 8.26875,6.525 L18.45,6.525 C19.6875,6.525 20.7,7.5375 20.7,8.775 L20.7,18.95625 L20.7,18.95625 Z" id="Shape" fill="#FFFFFF" fill-rule="nonzero"></path>
                </g>
            </g>
        </g>
    </g>
</svg>