<?xml version="1.0" encoding="UTF-8"?>
<svg width="188px" height="53px" viewBox="0 0 188 53" version="1.1" xmlns="http://www.w3.org/2000/svg" xmlns:xlink="http://www.w3.org/1999/xlink">
    <title>Group 10 Copy</title>
    <defs>
        <filter id="filter-1">
            <feColorMatrix in="SourceGraphic" type="matrix" values="0 0 0 0 0.150796 0 0 0 0 0.093063 0 0 0 0 0.188153 0 0 0 1.000000 0"></feColorMatrix>
        </filter>
    </defs>
    <g id="Design-Update" stroke="none" stroke-width="1" fill="none" fill-rule="evenodd">
        <g id="Desktop-HD" transform="translate(-71.000000, -15.000000)">
            <g id="Group-10-Copy" transform="translate(71.000000, 15.000000)">
                <g filter="url(#filter-1)" id="Ice-Cream-Logo">
                    <g id="Group" fill="#000000" fill-rule="nonzero">
                        <path d="M18.5,0.215680225 C13.1430045,0.215680225 8.70671169,3.96252416 7.53427419,8.96216899 C3.20628513,10.1172415 0,14.0044222 0,18.6763544 C0,23.2170192 3.01663805,27.0421364 7.16129032,28.3161016 L7.16129032,30.2887139 C7.16129032,31.562457 7.9113406,32.67021 8.98891129,33.2104134 L17.4183468,51.9130117 C17.6144813,52.3323454 18.0362549,52.6003698 18.5,52.6003698 C18.9637451,52.6003698 19.3855187,52.3323454 19.5816532,51.9130117 L30.2862903,28.1858347 C34.1882745,26.7739975 37,23.0479498 37,18.6763544 C37,14.0044222 33.7937149,10.1172474 29.4657258,8.96216899 C28.2932883,3.96252416 23.8569955,0.215680225 18.5,0.215680225 Z M18.5,2.5977027 C22.9701628,2.5977027 26.6361962,5.84052258 27.3210685,10.0973516 C27.3982499,10.5932182 27.7785893,10.9876327 28.2721774,11.0836578 C31.878386,11.7504097 34.6129032,14.8730863 34.6129032,18.6763544 C34.6129032,22.9660136 31.1536366,26.4179274 26.8548387,26.4179274 C23.5276716,26.4179274 20.7288329,24.3337888 19.6189516,21.4119583 C19.4452091,20.945262 18.9989197,20.6356243 18.5,20.6356243 C18.0010803,20.6356243 17.5547909,20.945262 17.3810484,21.4119583 C16.5117089,23.7005579 14.5989229,25.4612476 12.2152218,26.1201746 C11.6954579,26.2631133 11.3362328,26.7359774 11.3387097,27.2739667 L11.3387097,30.2887139 C11.3387097,30.8041836 10.9601131,31.1819724 10.4435484,31.1819724 C9.92698363,31.1819724 9.5483871,30.8041836 9.5483871,30.2887139 L9.5483871,27.4228431 C9.5513056,26.855994 9.153492,26.3656218 8.59727823,26.2504415 C5.05595571,25.5348224 2.38709677,22.4359719 2.38709677,18.6763544 C2.38709677,14.8730803 5.1216146,11.7504097 8.72782258,11.0836578 C9.22141069,10.9876327 9.60175012,10.5932182 9.67893145,10.0973516 C10.3638038,5.84052258 14.0298372,2.5977027 18.5,2.5977027 Z M27.9178427,13.2981943 C27.4049232,13.3387578 26.9757711,13.7027278 26.8529734,14.2013251 C26.7301758,14.6999225 26.9413698,15.2209312 27.3770161,15.4941212 C28.8068143,16.4512953 29.7395545,17.4416628 29.8387097,19.9045847 C29.8553448,20.3301077 30.0982214,20.7144487 30.4758446,20.9128213 C30.8534678,21.1111939 31.3084636,21.0934584 31.669429,20.866296 C32.0303943,20.6391336 32.2424861,20.2370582 32.2258065,19.811537 C32.0993619,16.6707748 30.5101379,14.7014675 28.7197581,13.5028993 C28.4854768,13.341405 28.2010596,13.2688017 27.9178427,13.2981943 L27.9178427,13.2981943 Z M18.5372984,24.3150482 C20.3598587,26.9961753 23.3707749,28.7999499 26.8548387,28.7999499 C27.0454943,28.7999499 27.2262023,28.773173 27.4143145,28.7627308 L25.1391129,33.805919 L13.7258065,28.7627308 L13.7258065,28.0741774 C15.6935667,27.3252696 17.3793709,26.0332427 18.5372984,24.3150482 Z M13.5579637,31.2936297 L24.1693548,35.9646269 L22.2857863,40.1517757 L12.811996,35.8901887 L11.655746,33.3220707 C12.5509102,32.9598842 13.2546174,32.2143248 13.5579637,31.2936297 Z M14.2852823,39.1654696 L21.297379,42.3104836 L18.5,48.5260735 L14.2852823,39.1654696 Z" id="Shape"></path>
                    </g>
                </g>
                <text id="Melman’s-Homemade" font-family="LilyScriptOne-Regular, Lily Script One" font-size="26" font-weight="normal" line-spacing="22" fill="#261830">
                    <tspan x="39" y="32">  </tspan>
                    <tspan x="50.62" y="34.0339966" font-size="24">Melman’s</tspan>
                    <tspan x="153.988" y="38.4419556"></tspan>
                    <tspan x="39" y="54">Homemade</tspan>
                </text>
            </g>
        </g>
    </g>
</svg>