<svg xmlns="http://www.w3.org/2000/svg" viewBox="0 0 25 31.25" x="0px" y="0px"><title>Video, photography, camera, </title><g data-name="Layer 15"><path d="M17.73,12.06l-8-4.21a.5.5,0,0,0-.49,0A.5.5,0,0,0,9,8.3v8.4a.5.5,0,0,0,.24.43.48.48,0,0,0,.26.07.59.59,0,0,0,.23-.05l8-4.21a.49.49,0,0,0,0-.88ZM10,15.88V9.12l6.42,3.38ZM12.5,2A10.5,10.5,0,1,0,23,12.5,10.51,10.51,0,0,0,12.5,2Zm0,20A9.5,9.5,0,1,1,22,12.5,9.51,9.51,0,0,1,12.5,22Z"/></g><text x="0" y="40" fill="#000000" font-size="5px" font-weight="bold" font-family="'Helvetica Neue', Helvetica, Arial-Unicode, Arial, Sans-serif">Created by Caesar Rizky Kurniawan</text><text x="0" y="45" fill="#000000" font-size="5px" font-weight="bold" font-family="'Helvetica Neue', Helvetica, Arial-Unicode, Arial, Sans-serif">from the Noun Project</text></svg>