<?xml version="1.0" encoding="UTF-8"?>
<svg width="28px" height="28px" viewBox="0 0 28 28" version="1.1" xmlns="http://www.w3.org/2000/svg" xmlns:xlink="http://www.w3.org/1999/xlink">
    <title>Group 3</title>
    <defs>
        <filter id="filter-1">
            <feColorMatrix in="SourceGraphic" type="matrix" values="0 0 0 0 1.000000 0 0 0 0 1.000000 0 0 0 0 1.000000 0 0 0 1.000000 0"></feColorMatrix>
        </filter>
        <filter id="filter-2">
            <feColorMatrix in="SourceGraphic" type="matrix" values="0 0 0 0 1.000000 0 0 0 0 1.000000 0 0 0 0 1.000000 0 0 0 1.000000 0"></feColorMatrix>
        </filter>
    </defs>
    <g id="Design-Update" stroke="none" stroke-width="1" fill="none" fill-rule="evenodd">
        <g id="Desktop-HD" transform="translate(-922.000000, -6405.000000)">
            <g id="Group-2-Copy-6" transform="translate(869.000000, 6403.000000)">
                <g id="Group-3" transform="translate(53.428904, 2.832531)">
                    <g filter="url(#filter-1)" id="Group-3-Copy">
                        <g filter="url(#filter-2)" id="Twitter-Icon">
                            <g transform="translate(0.000000, 0.000000)">
                                <path d="M13.5,0 C6.04335937,0 0,6.04335937 0,13.5 C0,20.9566406 6.04335937,27 13.5,27 C20.9566406,27 27,20.9566406 27,13.5 C27,6.04335938 20.9566406,0 13.5,0 Z" id="Shape" fill="#000000" fill-rule="nonzero"></path>
                            </g>
                        </g>
                    </g>
                    <path d="M20.4612142,10.9896194 C20.4696459,11.1224913 20.4696459,11.2512111 20.4696459,11.384083 C20.4696459,15.3868512 17.3752108,20 11.7217538,20 C9.98060708,20 8.36172007,19.5017301 7,18.6422145 C7.24873524,18.6712803 7.48482293,18.6795848 7.74198988,18.6795848 C9.17959528,18.6795848 10.5033727,18.2020761 11.5573356,17.384083 C10.2040472,17.3550173 9.07419899,16.483045 8.68212479,15.283045 C8.87183811,15.3121107 9.06155143,15.3287197 9.26391231,15.3287197 C9.53794266,15.3287197 9.81618887,15.2913495 10.0733558,15.2249135 C8.66526138,14.9425606 7.60708263,13.7259516 7.60708263,12.2519031 L7.60708263,12.2145329 C8.01602024,12.4387543 8.49241147,12.5799308 8.99831366,12.600692 C8.16779089,12.0608997 7.62816189,11.1307958 7.62816189,10.0802768 C7.62816189,9.51972318 7.77993255,9.00069204 8.0455312,8.55224913 C9.55902192,10.3916955 11.8355818,11.5916955 14.386172,11.7204152 C14.3397976,11.4961938 14.3102867,11.2595156 14.3102867,11.0269896 C14.3102867,9.35778547 15.6804384,8 17.3836425,8 C18.2689713,8 19.0699831,8.36539792 19.6306914,8.9550173 C20.3263069,8.82214533 20.9924115,8.56885813 21.5826307,8.22422145 C21.3549747,8.92595156 20.8701518,9.51972318 20.2293423,9.89342561 C20.8490725,9.82698962 21.4477234,9.66089965 22,9.42422145 C21.5826307,10.0262976 21.0598651,10.5577855 20.4612142,10.9896194 Z" id="Path-Copy" fill="#261830" fill-rule="nonzero"></path>
                </g>
            </g>
        </g>
    </g>
</svg>